<svg width="297" height="37" viewBox="0 0 297 37" fill="none" xmlns="http://www.w3.org/2000/svg">
<path d="M296.531 28.4453C296.531 29.0234 296.461 29.6328 296.32 30.2734C296.195 30.9141 295.992 31.5547 295.711 32.1953C295.43 32.8203 295.062 33.4219 294.609 34C294.172 34.5781 293.633 35.0938 292.992 35.5469C292.367 35.9844 291.641 36.3359 290.812 36.6016C289.984 36.8672 289.047 37 288 37H277.008C276.43 37 275.82 36.9375 275.18 36.8125C274.539 36.6719 273.898 36.4609 273.258 36.1797C272.633 35.8984 272.031 35.5391 271.453 35.1016C270.875 34.6484 270.359 34.1094 269.906 33.4844C269.469 32.8438 269.117 32.1094 268.852 31.2812C268.586 30.4375 268.453 29.4922 268.453 28.4453V0.953125H274.547V28.4453C274.547 29.1953 274.781 29.7969 275.25 30.25C275.719 30.6875 276.305 30.9062 277.008 30.9062H288C288.766 30.9062 289.359 30.6797 289.781 30.2266C290.219 29.7734 290.438 29.1797 290.438 28.4453V20.1953C290.438 19.4297 290.211 18.8359 289.758 18.4141C289.305 17.9766 288.719 17.7578 288 17.7578H277.008V11.6641H288C288.578 11.6641 289.188 11.7344 289.828 11.875C290.469 12 291.102 12.2031 291.727 12.4844C292.367 12.7656 292.977 13.1328 293.555 13.5859C294.133 14.0234 294.641 14.5625 295.078 15.2031C295.516 15.8281 295.867 16.5547 296.133 17.3828C296.398 18.2109 296.531 19.1484 296.531 20.1953V28.4453Z" fill="black"/>
<path d="M262.875 33.9297C262.875 34.3672 262.797 34.7734 262.641 35.1484C262.484 35.5234 262.266 35.8516 261.984 36.1328C261.719 36.3984 261.398 36.6094 261.023 36.7656C260.664 36.9219 260.273 37 259.852 37H246.07C245.32 37 244.516 36.9141 243.656 36.7422C242.812 36.5703 241.977 36.2969 241.148 35.9219C240.32 35.5312 239.516 35.0469 238.734 34.4688C237.969 33.875 237.297 33.1641 236.719 32.3359C236.141 31.4922 235.672 30.5234 235.312 29.4297C234.969 28.3359 234.797 27.1016 234.797 25.7266V11.6641H240.891V25.7266C240.891 26.5234 241.023 27.2422 241.289 27.8828C241.57 28.5078 241.945 29.0469 242.414 29.5C242.883 29.9531 243.43 30.3047 244.055 30.5547C244.695 30.7891 245.383 30.9062 246.117 30.9062H256.781V11.6641H262.875V33.9297Z" fill="black"/>
<path d="M201.352 17.125H222.75V3.39062H228.844V37H222.75V23.2656H201.352V37H195.258V3.39062H201.352V17.125Z" fill="black"/>
<path d="M189.328 28.4453C189.328 29.4922 189.195 30.4375 188.93 31.2812C188.664 32.1094 188.312 32.8438 187.875 33.4844C187.438 34.1094 186.93 34.6484 186.352 35.1016C185.773 35.5391 185.164 35.8984 184.523 36.1797C183.898 36.4609 183.258 36.6719 182.602 36.8125C181.961 36.9375 181.352 37 180.773 37H169.781C168.938 37 168.016 36.8516 167.016 36.5547C166.016 36.2578 165.086 35.7734 164.227 35.1016C163.383 34.4141 162.672 33.5312 162.094 32.4531C161.531 31.3594 161.25 30.0234 161.25 28.4453V20.1953C161.25 18.6328 161.531 17.3125 162.094 16.2344C162.672 15.1406 163.383 14.2578 164.227 13.5859C165.086 12.8984 166.016 12.4062 167.016 12.1094C168.016 11.8125 168.938 11.6641 169.781 11.6641H180.773C182.336 11.6641 183.664 11.9453 184.758 12.5078C185.852 13.0703 186.734 13.7812 187.406 14.6406C188.078 15.4844 188.562 16.4062 188.859 17.4062C189.172 18.4062 189.328 19.3359 189.328 20.1953V28.4453ZM183.234 20.2422C183.234 19.3984 183.023 18.7734 182.602 18.3672C182.18 17.9609 181.57 17.7578 180.773 17.7578H169.828C169.016 17.7578 168.398 17.9688 167.977 18.3906C167.555 18.7969 167.344 19.3984 167.344 20.1953V28.4453C167.344 29.2422 167.555 29.8516 167.977 30.2734C168.398 30.6953 169.016 30.9062 169.828 30.9062H180.773C181.602 30.9062 182.219 30.6953 182.625 30.2734C183.031 29.8516 183.234 29.2422 183.234 28.4453V20.2422Z" fill="black"/>
<path d="M156.422 37H150.328V22.9375C150.328 22.1406 150.188 21.4297 149.906 20.8047C149.641 20.1641 149.273 19.6172 148.805 19.1641C148.336 18.7109 147.781 18.3672 147.141 18.1328C146.516 17.8828 145.836 17.7578 145.102 17.7578H134.438V37H128.344V14.6875C128.344 14.2656 128.422 13.875 128.578 13.5156C128.734 13.1406 128.953 12.8203 129.234 12.5547C129.516 12.2734 129.844 12.0547 130.219 11.8984C130.594 11.7422 130.992 11.6641 131.414 11.6641H145.148C145.914 11.6641 146.719 11.75 147.562 11.9219C148.422 12.0938 149.266 12.375 150.094 12.7656C150.938 13.1406 151.734 13.625 152.484 14.2188C153.25 14.7969 153.922 15.5078 154.5 16.3516C155.094 17.1797 155.562 18.1406 155.906 19.2344C156.25 20.3281 156.422 21.5625 156.422 22.9375V37Z" fill="black"/>
<path d="M123.141 28.4453C123.141 29.4922 123.008 30.4375 122.742 31.2812C122.477 32.1094 122.125 32.8438 121.688 33.4844C121.25 34.1094 120.742 34.6484 120.164 35.1016C119.586 35.5391 118.977 35.8984 118.336 36.1797C117.711 36.4609 117.07 36.6719 116.414 36.8125C115.773 36.9375 115.164 37 114.586 37H103.594C102.75 37 101.828 36.8516 100.828 36.5547C99.8281 36.2578 98.8984 35.7734 98.0391 35.1016C97.1953 34.4141 96.4844 33.5312 95.9062 32.4531C95.3438 31.3594 95.0625 30.0234 95.0625 28.4453V20.1953C95.0625 18.6328 95.3438 17.3125 95.9062 16.2344C96.4844 15.1406 97.1953 14.2578 98.0391 13.5859C98.8984 12.8984 99.8281 12.4062 100.828 12.1094C101.828 11.8125 102.75 11.6641 103.594 11.6641H114.586C116.148 11.6641 117.477 11.9453 118.57 12.5078C119.664 13.0703 120.547 13.7812 121.219 14.6406C121.891 15.4844 122.375 16.4062 122.672 17.4062C122.984 18.4062 123.141 19.3359 123.141 20.1953V28.4453ZM117.047 20.2422C117.047 19.3984 116.836 18.7734 116.414 18.3672C115.992 17.9609 115.383 17.7578 114.586 17.7578H103.641C102.828 17.7578 102.211 17.9688 101.789 18.3906C101.367 18.7969 101.156 19.3984 101.156 20.1953V28.4453C101.156 29.2422 101.367 29.8516 101.789 30.2734C102.211 30.6953 102.828 30.9062 103.641 30.9062H114.586C115.414 30.9062 116.031 30.6953 116.438 30.2734C116.844 29.8516 117.047 29.2422 117.047 28.4453V20.2422Z" fill="black"/>
<path d="M91.6406 17.7578H77.9297C77.1016 17.7578 76.4766 17.9688 76.0547 18.3906C75.6328 18.7969 75.4219 19.3984 75.4219 20.1953V37H69.3281V20.1953C69.3281 19.1484 69.4609 18.2109 69.7266 17.3828C69.9922 16.5547 70.3438 15.8281 70.7812 15.2031C71.2344 14.5625 71.75 14.0234 72.3281 13.5859C72.9062 13.1328 73.5078 12.7656 74.1328 12.4844C74.7734 12.2031 75.4141 12 76.0547 11.875C76.7109 11.7344 77.3203 11.6641 77.8828 11.6641H91.6406V17.7578Z" fill="black"/>
<path d="M63.8906 37H57.7969V20.1953C57.7969 19.3984 57.5938 18.7969 57.1875 18.3906C56.7812 17.9688 56.1719 17.7578 55.3594 17.7578H44.3672V11.6641H55.3594C55.9375 11.6641 56.5469 11.7344 57.1875 11.875C57.8281 12 58.4609 12.2031 59.0859 12.4844C59.7266 12.7656 60.3359 13.1328 60.9141 13.5859C61.4922 14.0234 62 14.5625 62.4375 15.2031C62.875 15.8281 63.2266 16.5547 63.4922 17.3828C63.7578 18.2109 63.8906 19.1484 63.8906 20.1953V37ZM41.9062 37H35.8125V0.953125H41.9062V37Z" fill="black"/>
<path d="M30.6328 37H8.64844C8.08594 37 7.47656 36.9375 6.82031 36.8125C6.17969 36.6719 5.53906 36.4609 4.89844 36.1797C4.27344 35.8984 3.67188 35.5391 3.09375 35.1016C2.51562 34.6484 2 34.1094 1.54688 33.4844C1.10938 32.8438 0.757812 32.1094 0.492188 31.2812C0.226562 30.4375 0.09375 29.4922 0.09375 28.4453V11.9453C0.09375 11.3828 0.15625 10.7812 0.28125 10.1406C0.421875 9.48438 0.632812 8.84375 0.914062 8.21875C1.19531 7.57812 1.5625 6.96875 2.01562 6.39062C2.46875 5.8125 3.00781 5.30469 3.63281 4.86719C4.27344 4.41406 5.00781 4.05469 5.83594 3.78906C6.66406 3.52344 7.60156 3.39062 8.64844 3.39062H30.6328V9.48438H8.64844C7.85156 9.48438 7.24219 9.69531 6.82031 10.1172C6.39844 10.5391 6.1875 11.1641 6.1875 11.9922V28.4453C6.1875 29.2266 6.39844 29.8359 6.82031 30.2734C7.25781 30.6953 7.86719 30.9062 8.64844 30.9062H30.6328V37Z" fill="black"/>
</svg>
